<svg width="73" height="47" viewBox="0 0 73 47" fill="none" xmlns="http://www.w3.org/2000/svg">
<path d="M0 2.11572C0 1.01115 0.895431 0.115723 2 0.115723H10.9363V46.3608H10C4.47715 46.3608 0 41.8836 0 36.3608V2.11572Z" fill="#EFEFEF"/>
<path d="M20.3978 29.3033C39.3298 28.4461 39.0028 -0.199891 19.0538 0.00105222C18.2252 0.009398 17.8443 1.00167 18.3642 1.64684C26.3375 11.5408 22.6033 22.0819 19.3356 26.7775C18.7677 27.5935 19.4047 29.3482 20.3978 29.3033Z" fill="#EFEFEF"/>
<path d="M51.3756 44.2928C47.5654 42.7189 43.4558 40.6293 39.1337 34.9421C38.5295 34.1471 37.1836 34.5547 37.1836 35.5531V45.0483C37.1836 45.6006 37.6314 46.0483 38.1836 46.0483H51.0264C52.1007 46.0483 52.3685 44.7029 51.3756 44.2928Z" fill="#EFEFEF"/>
<path d="M72.3362 38.8616C72.3362 35.6658 39.6697 33.3594 37.3068 12.0165C37.2218 11.249 38.0347 10.7224 38.734 11.0498C50.3316 16.4801 73.3809 19.7583 72.3362 38.8616Z" fill="#EFEFEF"/>
<path d="M66.868 14.8017C58.7381 14.5261 63.9768 7.08004 62.1108 2.32504C61.8021 1.53827 62.2025 0.451774 63.0468 0.489402C73.3788 0.94985 77.2805 15.1546 66.868 14.8017Z" fill="#EFEFEF"/>
</svg>
